# xmcd
#
# Track frame offsets: 
#        150
#        17895
#        32320
#        46157
#        61877
#        75965
#        92172
#        109702
#        129202
#        146967
#
# Disc length: 2302 seconds
#
# Revision: 3
# Processed by: cddbd v1.5.2PL0 Copyright (c) Steve Scherf et al.
# Submitted via: ExactAudioCopyFreeDBPlugin 1.0
#
DISCID=7308fc0a
DTITLE=Various Artist - Blues Bar-B-Que (Rounder EasyDisc)
DYEAR=1997
DGENRE=Blues
TTITLE0=Robert Ward - Meat Off The Bone
TTITLE1=Johnny Dyer - BBQ at J.D.'s
TTITLE2=Marcia Ball - Mama's Cooking
TTITLE3=Elvin Bishop - Pigmeat on the Line
TTITLE4=Son Seals - Hot Sauce
TTITLE5=William Clarke - Greasy Gravy
TTITLE6=Smokey Wilson - Smoke n' Fire
TTITLE7=Big Joe and the Dynaflows - Smells Like Bar-B-Q
TTITLE8=Johnny Heartsman - Heartburn
TTITLE9=Big Twist and the Mellow Fellows - Too Much Barbeque
EXTD=EASYDISC\n1997 Rounder Records Corp.\nED CD 7030\nhttp://www.roun
EXTD=der.com
EXTT0=
EXTT1=
EXTT2=
EXTT3=
EXTT4=
EXTT5=
EXTT6=
EXTT7=
EXTT8=
EXTT9=
PLAYORDER=
